<?xml version="1.0" standalone="no"?>
<!DOCTYPE svg PUBLIC "-//W3C//DTD SVG 20010904//EN"
 "http://www.w3.org/TR/2001/REC-SVG-20010904/DTD/svg10.dtd">
<svg version="1.0" xmlns="http://www.w3.org/2000/svg"
 width="375.000000pt" height="220.000000pt" viewBox="0 0 375.000000 220.000000"
 preserveAspectRatio="xMidYMid meet">

<g transform="translate(0.000000,220.000000) scale(0.100000,-0.100000)"
fill="#000000" stroke="none">
<path d="M2005 2159 c35 -168 125 -287 242 -323 74 -23 170 -76 207 -114 28
-30 28 -30 -56 12 -46 23 -111 50 -144 61 -32 10 -75 28 -94 41 -19 12 -82 41
-139 64 -145 57 -246 118 -384 228 -37 30 -70 53 -72 50 -11 -11 29 -127 70
-207 25 -48 45 -90 45 -94 0 -4 -18 -7 -40 -7 -44 0 -48 -4 -25 -27 25 -24 11
-26 -32 -5 -35 18 -113 20 -113 4 0 -3 10 -17 23 -30 25 -28 22 -28 -60 2 -38
14 -47 14 -115 -5 -121 -33 -112 -28 -94 -48 25 -27 20 -30 -26 -16 -42 12
-45 12 -188 -52 -200 -89 -322 -128 -719 -233 l-45 -12 70 -37 c294 -155 484
-423 520 -732 6 -54 8 -56 55 -82 134 -76 262 -248 294 -395 3 -17 10 -32 13
-32 4 0 22 22 40 49 54 80 218 246 310 316 159 119 346 199 499 212 66 5 76 4
96 -15 54 -51 224 -154 262 -159 66 -10 326 -199 392 -286 30 -39 37 -57 62
-154 17 -62 55 -103 96 -103 19 0 37 -5 40 -10 17 -28 128 2 158 42 19 26 19
26 -6 69 -29 51 -49 117 -37 124 13 8 80 -73 80 -98 0 -13 11 -34 24 -46 23
-21 28 -22 76 -12 69 15 85 25 100 60 6 17 23 37 36 46 13 8 24 23 24 31 0 13
-3 12 -17 -4 -10 -12 -38 -25 -63 -30 -33 -7 -38 -10 -17 -11 32 -1 34 -10 9
-41 -13 -16 -32 -24 -69 -27 -61 -6 -93 8 -93 42 0 31 -47 85 -111 126 -49 31
-52 32 -102 20 -84 -19 -91 -32 -55 -108 29 -63 81 -113 116 -112 26 0 25 1
-8 12 -40 14 -100 87 -100 123 0 19 5 24 26 24 14 0 35 -5 46 -11 18 -10 20
-9 15 5 -8 21 6 28 37 16 16 -6 26 -17 26 -29 0 -11 16 -49 35 -85 l34 -65
-30 -25 c-69 -58 -181 -5 -245 116 -26 48 -26 155 0 174 18 12 18 17 6 41 -8
16 -60 74 -117 131 -57 56 -103 107 -103 113 0 6 -9 22 -20 36 -11 14 -20 32
-20 39 0 17 32 34 64 34 21 0 26 5 26 23 0 30 -47 101 -101 152 l-41 40 46
-64 c68 -93 73 -135 19 -146 -50 -11 -92 -37 -118 -75 -25 -36 -61 -60 -90
-60 -20 0 -19 2 15 56 35 55 47 122 32 172 -21 70 -136 180 -277 264 -33 20
-68 50 -78 68 -25 42 -31 124 -14 188 11 42 12 52 1 52 -7 0 -17 -7 -22 -16
-8 -15 -15 -15 -80 0 -91 21 -255 21 -363 0 -70 -13 -269 -70 -269 -77 0 -1
53 -2 117 -2 102 0 125 -3 170 -23 28 -13 61 -34 73 -47 l21 -23 -83 -7 c-231
-19 -448 -66 -618 -134 -106 -43 -167 -51 -214 -30 -14 7 -48 43 -76 80 -28
37 -74 88 -103 113 -68 58 -210 147 -281 176 -58 23 -65 40 -18 40 49 0 317
59 438 96 422 129 637 173 864 175 l110 1 75 -71 c41 -39 100 -83 132 -99 77
-39 121 -51 65 -18 -124 73 -239 189 -339 343 -57 87 -139 250 -131 259 3 3
23 -11 44 -31 64 -60 219 -158 389 -245 208 -106 276 -158 362 -274 47 -64 53
-66 23 -6 -26 51 -26 63 3 55 47 -14 173 -77 221 -112 51 -36 49 -27 -8 35
-26 28 -28 32 -10 32 30 -1 132 -45 186 -82 27 -18 71 -63 98 -100 34 -46 61
-71 89 -84 23 -10 41 -25 41 -33 0 -9 3 -34 7 -56 6 -37 5 -39 -10 -26 -30 24
-18 3 46 -83 81 -111 186 -297 256 -455 69 -155 65 -149 104 -159 36 -9 44
-30 46 -122 1 -36 -5 -63 -15 -78 -8 -12 -14 -28 -11 -35 8 -26 42 48 41 93
-2 108 -9 160 -22 160 -42 0 -68 30 -111 132 -76 178 -181 362 -261 458 -32
39 -38 55 -45 114 -9 90 -9 90 -54 111 -21 9 -73 55 -118 104 -78 84 -174 151
-217 151 -9 0 -19 8 -22 18 -22 65 -74 152 -127 209 -69 73 -134 122 -287 213
-58 35 -125 77 -150 95 -73 52 -73 52 -65 14z m50 -915 c-22 -80 -30 -255 -16
-325 7 -31 21 -74 31 -95 26 -50 25 -58 -4 -39 -13 9 -38 43 -56 76 -42 79
-65 89 -207 89 -198 0 -406 -53 -608 -154 -60 -30 -111 -54 -112 -52 -6 6 103
110 158 151 66 49 178 105 269 135 101 34 193 49 336 56 l132 7 16 59 c17 63
64 163 72 155 2 -2 -3 -31 -11 -63z"/>
<path d="M1800 2046 c0 -2 15 -14 34 -25 27 -17 50 -21 114 -21 l82 0 -12 25
c-11 24 -14 25 -115 25 -56 0 -103 -2 -103 -4z"/>
<path d="M1530 2033 c-81 -7 -273 -36 -385 -60 -647 -135 -1095 -455 -1131
-806 -37 -362 349 -703 984 -871 73 -19 132 -30 132 -25 0 5 -6 24 -14 43 -12
28 -24 36 -92 60 -103 37 -256 113 -347 172 -89 59 -241 210 -285 285 -62 106
-77 162 -76 289 0 95 4 125 22 170 12 30 22 59 22 63 0 4 -43 29 -95 54 -53
25 -94 47 -93 48 2 2 75 22 163 45 151 41 163 46 215 90 121 104 269 190 443
259 101 40 313 97 432 116 55 8 115 18 133 21 35 5 39 12 20 35 -8 9 -27 13
-48 12z"/>
<path d="M2340 2016 c0 -3 24 -21 53 -40 33 -22 87 -44 149 -60 602 -158 971
-538 884 -911 -9 -38 -35 -103 -57 -144 l-40 -74 19 -41 c11 -23 30 -65 42
-93 12 -29 25 -53 29 -53 15 0 128 102 173 156 62 74 125 201 139 279 75 411
-435 815 -1206 954 -164 29 -185 32 -185 27z"/>
<path d="M2491 1202 c5 -16 21 -35 35 -43 36 -19 94 -17 109 4 7 9 15 17 19
17 11 0 7 -35 -6 -48 -9 -9 -8 -12 4 -12 8 0 22 -10 30 -22 14 -21 15 -19 9
27 -4 28 -10 56 -14 62 -9 15 -61 29 -139 38 l-57 6 10 -29z"/>
<path d="M2800 1016 c0 -24 57 -109 100 -151 29 -27 72 -76 96 -109 24 -32 44
-54 44 -49 0 20 -66 111 -125 173 -35 36 -75 83 -89 104 -14 21 -26 36 -26 32z"/>
<path d="M3096 464 c-4 -9 0 -24 7 -33 8 -9 13 -21 10 -27 -4 -13 81 -94 99
-94 7 0 -2 9 -20 20 -19 12 -40 36 -48 58 -34 84 -41 95 -48 76z"/>
<path d="M3191 447 c15 -12 36 -30 48 -39 11 -10 21 -27 21 -37 0 -30 19 -35
26 -7 8 34 3 40 -64 75 -45 24 -52 26 -31 8z"/>
<path d="M2565 325 c-322 -96 -774 -118 -1133 -57 l-102 18 -22 -23 c-12 -13
-19 -25 -17 -28 3 -2 56 -12 119 -21 136 -19 662 -28 805 -13 179 18 517 79
534 95 5 5 -61 64 -69 62 -3 0 -55 -15 -115 -33z"/>
</g>
</svg>
